<svg width="47" height="65" viewBox="0 0 47 65" fill="none" xmlns="http://www.w3.org/2000/svg">
<path d="M23.5 0C17.2674 0 11.2901 2.47589 6.88299 6.88299C2.47589 11.2901 0 17.2674 0 23.5C0 43.7955 23.5 64.0909 23.5 64.0909C23.5 64.0909 47 43.7955 47 23.5C47 17.2674 44.5241 11.2901 40.117 6.88299C35.7099 2.47589 29.7326 0 23.5 0V0ZM23.5 41.6591C19.9085 41.6591 16.3976 40.5941 13.4113 38.5987C10.4251 36.6034 8.09761 33.7673 6.72319 30.4492C5.34877 27.131 4.98916 23.4799 5.68983 19.9573C6.3905 16.4348 8.11999 13.1992 10.6596 10.6596C13.1992 8.11999 16.4348 6.3905 19.9573 5.68983C23.4799 4.98916 27.131 5.34877 30.4492 6.72319C33.7673 8.09761 36.6034 10.4251 38.5987 13.4114C40.5941 16.3976 41.6591 19.9085 41.6591 23.5C41.6591 28.3161 39.7459 32.9349 36.3404 36.3404C32.9349 39.7459 28.3161 41.6591 23.5 41.6591V41.6591Z" fill="#422B1F"/>
<path d="M32.3961 21.38H25.8702C25.6582 21.38 25.4863 21.2081 25.4863 20.9961V14.4702C25.4863 13.4102 24.6269 12.5508 23.5669 12.5508C22.507 12.5508 21.6475 13.4102 21.6475 14.4702V20.9961C21.6475 21.2081 21.4757 21.38 21.2637 21.38H14.7377C13.6778 21.38 12.8184 22.2394 12.8184 23.2994C12.8184 24.3593 13.6778 25.2188 14.7377 25.2188H21.2637C21.4757 25.2188 21.6475 25.3906 21.6475 25.6026V32.1286C21.6475 33.1885 22.507 34.0479 23.5669 34.0479C24.6269 34.0479 25.4863 33.1885 25.4863 32.1286V25.6026C25.4863 25.3906 25.6582 25.2188 25.8702 25.2188H32.3961C33.4561 25.2188 34.3155 24.3593 34.3155 23.2994C34.3155 22.2394 33.4561 21.38 32.3961 21.38Z" fill="#422B1F"/>
</svg>
