<svg width="37" height="64" viewBox="0 0 37 64" fill="none" xmlns="http://www.w3.org/2000/svg">
<path d="M12.4334 32.0135L35.9944 8.07024C36.6431 7.41255 37 6.5332 37 5.59558C37 4.65743 36.6431 3.7786 35.9944 3.11987L33.9298 1.02296C33.2821 0.363187 32.4162 0 31.4935 0C30.5708 0 29.706 0.363187 29.0578 1.02296L1.00464 29.5295C0.353833 30.1903 -0.00254648 31.0733 1.37182e-05 32.012C-0.00254648 32.9548 0.353321 33.8368 1.00464 34.4981L29.0316 62.977C29.6799 63.6368 30.5447 64 31.4679 64C32.3906 64 33.2555 63.6368 33.9042 62.977L35.9682 60.8801C37.3113 59.5153 37.3113 57.2935 35.9682 55.9292L12.4334 32.0135Z" fill="#422B1F"/>
</svg>
