<svg id="exx3wkkfbvm91" xmlns="http://www.w3.org/2000/svg" xmlns:xlink="http://www.w3.org/1999/xlink" viewBox="0 0 688 1131" shape-rendering="geometricPrecision" text-rendering="geometricPrecision" width="688" height="1131"><style><![CDATA[#exx3wkkfbvm93_to {animation: exx3wkkfbvm93_to__to 2400ms linear infinite normal forwards}@keyframes exx3wkkfbvm93_to__to { 0% {transform: translate(3.025000px,3px)} 8.333333% {transform: translate(99.486172px,-73.706149px)} 16.666667% {transform: translate(215.612261px,-121.254717px)} 25% {transform: translate(340.489466px,-136.711291px)} 33.333333% {transform: translate(466.279717px,-120.216586px)} 41.666667% {transform: translate(583.216561px,-72.222586px)} 50% {transform: translate(683.025000px,1px)} 58.333333% {transform: translate(759.731149px,97.461172px)} 66.666667% {transform: translate(807.279717px,213.587261px)} 75% {transform: translate(822.736291px,338.464466px)} 83.333333% {transform: translate(806.241586px,464.254717px)} 91.666667% {transform: translate(758.247586px,581.191561px)} 100% {transform: translate(685.025000px,681px)} }#exx3wkkfbvm93_tr {animation: exx3wkkfbvm93_tr__tr 2400ms linear infinite normal forwards}@keyframes exx3wkkfbvm93_tr__tr { 0% {transform: rotate(0deg)} 8.333333% {transform: rotate(15deg)} 16.666667% {transform: rotate(30deg)} 25% {transform: rotate(45deg)} 33.333333% {transform: rotate(60deg)} 41.666667% {transform: rotate(75deg)} 50% {transform: rotate(90deg)} 58.333333% {transform: rotate(105deg)} 66.666667% {transform: rotate(120deg)} 75% {transform: rotate(135deg)} 83.333333% {transform: rotate(150deg)} 91.666667% {transform: rotate(165deg)} 100% {transform: rotate(180deg)} }#exx3wkkfbvm94_to {animation: exx3wkkfbvm94_to__to 2400ms linear infinite normal forwards}@keyframes exx3wkkfbvm94_to__to { 0% {transform: translate(3.025000px,3px)} 8.333333% {transform: translate(99.486172px,-73.706149px)} 16.666667% {transform: translate(215.612261px,-121.254717px)} 25% {transform: translate(340.489466px,-136.711291px)} 33.333333% {transform: translate(466.279717px,-120.216586px)} 41.666667% {transform: translate(583.216561px,-72.222586px)} 50% {transform: translate(683.025000px,1px)} 58.333333% {transform: translate(759.731149px,97.461172px)} 66.666667% {transform: translate(807.279717px,213.587261px)} 75% {transform: translate(822.736291px,338.464466px)} 83.333333% {transform: translate(806.241586px,464.254717px)} 91.666667% {transform: translate(758.247586px,581.191561px)} 100% {transform: translate(685.025000px,681px)} }#exx3wkkfbvm94_tr {animation: exx3wkkfbvm94_tr__tr 2400ms linear infinite normal forwards}@keyframes exx3wkkfbvm94_tr__tr { 0% {transform: rotate(0deg)} 8.333333% {transform: rotate(15deg)} 16.666667% {transform: rotate(30deg)} 25% {transform: rotate(45deg)} 33.333333% {transform: rotate(60deg)} 41.666667% {transform: rotate(75deg)} 50% {transform: rotate(90deg)} 58.333333% {transform: rotate(105deg)} 66.666667% {transform: rotate(120deg)} 75% {transform: rotate(135deg)} 83.333333% {transform: rotate(150deg)} 91.666667% {transform: rotate(165deg)} 100% {transform: rotate(180deg)} }#exx3wkkfbvm95_to {animation: exx3wkkfbvm95_to__to 2400ms linear infinite normal forwards}@keyframes exx3wkkfbvm95_to__to { 0% {transform: translate(3.025000px,3px)} 8.333333% {transform: translate(99.486172px,-73.706149px)} 16.666667% {transform: translate(215.612261px,-121.254717px)} 25% {transform: translate(340.489466px,-136.711291px)} 33.333333% {transform: translate(466.279717px,-120.216586px)} 41.666667% {transform: translate(583.216561px,-72.222586px)} 50% {transform: translate(683.025000px,1px)} 58.333333% {transform: translate(759.731149px,97.461172px)} 66.666667% {transform: translate(807.279717px,213.587261px)} 75% {transform: translate(822.736291px,338.464466px)} 83.333333% {transform: translate(806.241586px,464.254717px)} 91.666667% {transform: translate(758.247586px,581.191561px)} 100% {transform: translate(685.025000px,681px)} }#exx3wkkfbvm95_tr {animation: exx3wkkfbvm95_tr__tr 2400ms linear infinite normal forwards}@keyframes exx3wkkfbvm95_tr__tr { 0% {transform: rotate(0deg)} 8.333333% {transform: rotate(15deg)} 16.666667% {transform: rotate(30deg)} 25% {transform: rotate(45deg)} 33.333333% {transform: rotate(60deg)} 41.666667% {transform: rotate(75deg)} 50% {transform: rotate(90deg)} 58.333333% {transform: rotate(105deg)} 66.666667% {transform: rotate(120deg)} 75% {transform: rotate(135deg)} 83.333333% {transform: rotate(150deg)} 91.666667% {transform: rotate(165deg)} 100% {transform: rotate(180deg)} }#exx3wkkfbvm96_to {animation: exx3wkkfbvm96_to__to 2400ms linear infinite normal forwards}@keyframes exx3wkkfbvm96_to__to { 0% {transform: translate(3.025000px,3px)} 8.333333% {transform: translate(99.486172px,-73.706149px)} 16.666667% {transform: translate(215.612261px,-121.254717px)} 25% {transform: translate(340.489466px,-136.711291px)} 33.333333% {transform: translate(466.279717px,-120.216586px)} 41.666667% {transform: translate(583.216561px,-72.222586px)} 50% {transform: translate(683.025000px,1px)} 58.333333% {transform: translate(759.731149px,97.461172px)} 66.666667% {transform: translate(807.279717px,213.587261px)} 75% {transform: translate(822.736291px,338.464466px)} 83.333333% {transform: translate(806.241586px,464.254717px)} 91.666667% {transform: translate(758.247586px,581.191561px)} 100% {transform: translate(685.025000px,681px)} }#exx3wkkfbvm96_tr {animation: exx3wkkfbvm96_tr__tr 2400ms linear infinite normal forwards}@keyframes exx3wkkfbvm96_tr__tr { 0% {transform: rotate(0deg)} 8.333333% {transform: rotate(15deg)} 16.666667% {transform: rotate(30deg)} 25% {transform: rotate(45deg)} 33.333333% {transform: rotate(60deg)} 41.666667% {transform: rotate(75deg)} 50% {transform: rotate(90deg)} 58.333333% {transform: rotate(105deg)} 66.666667% {transform: rotate(120deg)} 75% {transform: rotate(135deg)} 83.333333% {transform: rotate(150deg)} 91.666667% {transform: rotate(165deg)} 100% {transform: rotate(180deg)} }#exx3wkkfbvm97_to {animation: exx3wkkfbvm97_to__to 2400ms linear infinite normal forwards}@keyframes exx3wkkfbvm97_to__to { 0% {transform: translate(3.025000px,3px)} 8.333333% {transform: translate(99.486172px,-73.706149px)} 16.666667% {transform: translate(215.612261px,-121.254717px)} 25% {transform: translate(340.489466px,-136.711291px)} 33.333333% {transform: translate(466.279717px,-120.216586px)} 41.666667% {transform: translate(583.216561px,-72.222586px)} 50% {transform: translate(683.025000px,1px)} 58.333333% {transform: translate(759.731149px,97.461172px)} 66.666667% {transform: translate(807.279717px,213.587261px)} 75% {transform: translate(822.736291px,338.464466px)} 83.333333% {transform: translate(806.241586px,464.254717px)} 91.666667% {transform: translate(758.247586px,581.191561px)} 100% {transform: translate(685.025000px,681px)} }#exx3wkkfbvm97_tr {animation: exx3wkkfbvm97_tr__tr 2400ms linear infinite normal forwards}@keyframes exx3wkkfbvm97_tr__tr { 0% {transform: rotate(0deg)} 8.333333% {transform: rotate(15deg)} 16.666667% {transform: rotate(30deg)} 25% {transform: rotate(45deg)} 33.333333% {transform: rotate(60deg)} 41.666667% {transform: rotate(75deg)} 50% {transform: rotate(90deg)} 58.333333% {transform: rotate(105deg)} 66.666667% {transform: rotate(120deg)} 75% {transform: rotate(135deg)} 83.333333% {transform: rotate(150deg)} 91.666667% {transform: rotate(165deg)} 100% {transform: rotate(180deg)} }#exx3wkkfbvm98_to {animation: exx3wkkfbvm98_to__to 2400ms linear infinite normal forwards}@keyframes exx3wkkfbvm98_to__to { 0% {transform: translate(3.025000px,3px)} 8.333333% {transform: translate(99.486172px,-73.706149px)} 16.666667% {transform: translate(215.612261px,-121.254717px)} 25% {transform: translate(340.489466px,-136.711291px)} 33.333333% {transform: translate(466.279717px,-120.216586px)} 41.666667% {transform: translate(583.216561px,-72.222586px)} 50% {transform: translate(683.025000px,1px)} 58.333333% {transform: translate(759.731149px,97.461172px)} 66.666667% {transform: translate(807.279717px,213.587261px)} 75% {transform: translate(822.736291px,338.464466px)} 83.333333% {transform: translate(806.241586px,464.254717px)} 91.666667% {transform: translate(758.247586px,581.191561px)} 100% {transform: translate(685.025000px,681px)} }#exx3wkkfbvm98_tr {animation: exx3wkkfbvm98_tr__tr 2400ms linear infinite normal forwards}@keyframes exx3wkkfbvm98_tr__tr { 0% {transform: rotate(0deg)} 8.333333% {transform: rotate(15deg)} 16.666667% {transform: rotate(30deg)} 25% {transform: rotate(45deg)} 33.333333% {transform: rotate(60deg)} 41.666667% {transform: rotate(75deg)} 50% {transform: rotate(90deg)} 58.333333% {transform: rotate(105deg)} 66.666667% {transform: rotate(120deg)} 75% {transform: rotate(135deg)} 83.333333% {transform: rotate(150deg)} 91.666667% {transform: rotate(165deg)} 100% {transform: rotate(180deg)} }]]></style><path id="exx3wkkfbvm92" d="M688,343C688,532.434000,533.986000,686,344,686C154.014000,686,0,532.434000,0,343C0,153.566000,154.014000,0,344,0C533.986000,0,688,153.566000,688,343ZM57.024900,343C57.024900,501.031000,185.508000,629.141000,344,629.141000C502.492000,629.141000,630.975000,501.031000,630.975000,343C630.975000,184.969000,502.492000,56.859100,344,56.859100C185.508000,56.859100,57.024900,184.969000,57.024900,343Z" fill="rgb(66,43,31)" stroke="none" stroke-width="1"/><g id="exx3wkkfbvm93_to" transform="translate(3.025000,3)"><g id="exx3wkkfbvm93_tr" transform="rotate(0)"><path id="exx3wkkfbvm93" d="M409,165C409,202.555000,378.555000,233,341,233C303.445000,233,273,202.555000,273,165C273,127.445000,303.445000,97,341,97C378.555000,97,409,127.445000,409,165Z" transform="translate(0,0)" fill="rgb(66,43,31)" stroke="none" stroke-width="1"/></g></g><g id="exx3wkkfbvm94_to" transform="translate(3.025000,3)"><g id="exx3wkkfbvm94_tr" transform="rotate(0)"><path id="exx3wkkfbvm94" d="M563,252C563,289.555000,532.555000,320,495,320C457.445000,320,427,289.555000,427,252C427,214.445000,457.445000,184,495,184C532.555000,184,563,214.445000,563,252Z" transform="translate(0,0)" fill="rgb(66,43,31)" stroke="none" stroke-width="1"/></g></g><g id="exx3wkkfbvm95_to" transform="translate(3.025000,3)"><g id="exx3wkkfbvm95_tr" transform="rotate(0)"><path id="exx3wkkfbvm95" d="M557,426C557,463.555000,526.555000,494,489,494C451.445000,494,421,463.555000,421,426C421,388.445000,451.445000,358,489,358C526.555000,358,557,388.445000,557,426Z" transform="translate(0,0)" fill="rgb(66,43,31)" stroke="none" stroke-width="1"/></g></g><g id="exx3wkkfbvm96_to" transform="translate(3.025000,3)"><g id="exx3wkkfbvm96_tr" transform="rotate(0)"><path id="exx3wkkfbvm96" d="M409,513C409,550.555000,378.555000,581,341,581C303.445000,581,273,550.555000,273,513C273,475.445000,303.445000,445,341,445C378.555000,445,409,475.445000,409,513Z" transform="translate(0,0)" fill="rgb(66,43,31)" stroke="none" stroke-width="1"/></g></g><g id="exx3wkkfbvm97_to" transform="translate(3.025000,3)"><g id="exx3wkkfbvm97_tr" transform="rotate(0)"><path id="exx3wkkfbvm97" d="M261,426C261,463.555000,230.555000,494,193,494C155.445000,494,125,463.555000,125,426C125,388.445000,155.445000,358,193,358C230.555000,358,261,388.445000,261,426Z" transform="translate(0,0)" fill="rgb(66,43,31)" stroke="none" stroke-width="1"/></g></g><g id="exx3wkkfbvm98_to" transform="translate(3.025000,3)"><g id="exx3wkkfbvm98_tr" transform="rotate(0)"><path id="exx3wkkfbvm98" d="M255,252C255,289.555000,224.555000,320,187,320C149.445000,320,119,289.555000,119,252C119,214.445000,149.445000,184,187,184C224.555000,184,255,214.445000,255,252Z" transform="translate(0,0)" fill="rgb(66,43,31)" stroke="none" stroke-width="1"/></g></g><path id="exx3wkkfbvm99" d="M383,342C383,364.644000,364.644000,383,342,383C319.356000,383,301,364.644000,301,342C301,319.356000,319.356000,301,342,301C364.644000,301,383,319.356000,383,342Z" fill="rgb(66,43,31)" stroke="none" stroke-width="1"/><path id="exx3wkkfbvm910" d="M117.746000,657L116,657L342.975000,1038L571,657L570.304000,657C508.365000,706.239000,429.674000,735.702000,344.025000,735.702000C258.377000,735.702000,179.686000,706.239000,117.746000,657Z" fill="rgb(66,43,31)" stroke="none" stroke-width="1"/><path id="exx3wkkfbvm911" d="M236.733000,657C270.068000,669.556000,306.235000,676.432000,344.025000,676.432000C381.816000,676.432000,417.983000,669.556000,451.317000,657L236.733000,657Z" fill="rgb(66,43,31)" stroke="none" stroke-width="1"/><path id="exx3wkkfbvm912" d="M679,1035C679,1088.020000,528.568000,1131,343,1131C157.432000,1131,7,1088.020000,7,1035C7,981.981000,157.432000,939,343,939C528.568000,939,679,981.981000,679,1035Z" fill="rgb(66,43,31)" stroke="none" stroke-width="1"/></svg>