<svg width="51" height="64" viewBox="0 0 51 64" fill="none" xmlns="http://www.w3.org/2000/svg">
    <path d="M16.5137 58.2264C18.016 61.6229 21.416 64 25.3625 64C29.309 64 32.7089 61.6229 34.2113 58.2264H16.5137Z"
          fill="#F6F6F6"/>
    <path d="M25.3617 6.11458C27.966 6.11458 30.4667 6.57409 32.7872 7.41535V7.1295C32.7872 3.19827 29.589 0 25.6579 0H25.067C21.1358 0 17.9375 3.19827 17.9375 7.1295V7.41172C20.2568 6.57296 22.7567 6.11458 25.3617 6.11458V6.11458Z"
          fill="#F6F6F6"/>
    <path d="M48.7971 54.4702H1.92762C1.0409 54.4702 0.228691 53.8723 0.0442617 53.0048C-0.138289 52.146 0.253106 51.2984 1.04716 50.9315C1.2356 50.8093 2.65394 49.8176 4.0739 46.817C6.68183 41.3067 7.22923 33.5445 7.22923 28.0031C7.22923 18.0048 15.3635 9.87073 25.3617 9.87073C35.3363 9.87073 43.4556 17.9656 43.4941 27.9311C43.495 27.955 43.4955 27.9791 43.4955 28.0031C43.4955 33.5445 44.0429 41.3067 46.6508 46.817C48.0708 49.8176 49.489 50.8095 49.6776 50.9315C50.4716 51.2984 50.8632 52.1459 50.6805 53.0048C50.4961 53.8721 49.684 54.4702 48.7971 54.4702ZM49.6986 50.9448H49.6999H49.6986Z"
          fill="#F6F6F6"/>
</svg>
