<svg width="60" height="60" viewBox="0 0 60 60" fill="none" xmlns="http://www.w3.org/2000/svg">
    <path d="M57.7556 47.2818L47.8803 37.4065C49.6758 33.8155 50.8728 29.6259 50.8728 25.4364C50.8728 11.3716 39.5012 0 25.4364 0C11.3716 0 0 11.3716 0 25.4364C0 39.5012 11.3716 50.8728 25.4364 50.8728C29.6259 50.8728 33.8155 49.6758 37.4065 47.8803L47.2818 57.7556C50.2743 60.7481 54.7631 60.7481 57.7556 57.7556C60.4489 54.7631 60.4489 50.2743 57.7556 47.2818ZM25.4364 44.8878C14.6633 44.8878 5.98504 36.2095 5.98504 25.4364C5.98504 14.6633 14.6633 5.98504 25.4364 5.98504C36.2095 5.98504 44.8878 14.6633 44.8878 25.4364C44.8878 36.2095 36.2095 44.8878 25.4364 44.8878Z"
          fill="#F6F6F6"/>
</svg>
